<svg xmlns="http://www.w3.org/2000/svg" xmlns:xlink="http://www.w3.org/1999/xlink" xmlns:svgjs="http://svgjs.com/svgjs" width="512" height="512" x="0" y="0" viewBox="0 0 512 512" style="enable-background:new 0 0 512 512" xml:space="preserve" class=""><g><path d="M392.927,219h-56.5v31.008h53.185a23.919,23.919,0,0,1,23.9,23.938v84.311c0,19.047-6.074,36.724-17.1,49.774-7.386,8.74-16.227,14.325-25.916,16.788-13.451,3.42-34.068,1.77-34.068,1.77V458h24.738c46.3,0,83.839-44.416,83.839-99.207V271.153A52.113,52.113,0,0,0,392.927,219Z" style="" fill="#ffd36c" data-original="#ffd36c" class=""></path><path d="M392.927,219H350.4v.712A11.288,11.288,0,0,0,361.692,231h31.235A40.159,40.159,0,0,1,433,271.153v87.635C433,406.874,400.773,446,361.161,446h-1.229a9.528,9.528,0,0,0-9.528,9.528V458h10.757c46.3,0,83.839-44.416,83.839-99.207V271.153A52.113,52.113,0,0,0,392.927,219Z" style="" fill="#ffe180" data-original="#ffe180" class=""></path><path d="M339,184H67V458.066A13.935,13.935,0,0,0,80.934,472H81v15.02A16.98,16.98,0,0,0,97.98,504H308.02A16.98,16.98,0,0,0,325,487.02V472h.066A13.935,13.935,0,0,0,339,458.066Z" style="" fill="#ffd36c" data-original="#ffd36c" class=""></path><path d="M339,184H67V458.066A13.935,13.935,0,0,0,80.934,472H81v15.02A16.98,16.98,0,0,0,97.98,504H308.02A16.98,16.98,0,0,0,325,487.02V472h.066A13.935,13.935,0,0,0,339,458.066Z" style="" fill="#ffd36c" data-original="#ffd36c" class=""></path><path d="M101.039,184V319.1A128.581,128.581,0,0,0,229.62,447.682H339V184Z" style="" fill="#ffe180" data-original="#ffe180" class=""></path><path d="M81,487.02A16.98,16.98,0,0,0,97.98,504H308.02A16.98,16.98,0,0,0,325,487.02V472H81Z" style="" fill="#fdb924" data-original="#fdb924"></path><path d="M116.058,485.981A15.019,15.019,0,0,0,101.039,501h0a17.034,17.034,0,0,0,.28,3h206.7A16.98,16.98,0,0,0,325,487.02v-1.039Z" style="" fill="#f9cb4e" data-original="#f9cb4e"></path><path d="M392.927,211H347V184a8,8,0,0,0-8-8H67a8,8,0,0,0-8,8V458.066A21.954,21.954,0,0,0,73,478.5v8.516A25.008,25.008,0,0,0,97.98,512H308.02A25.008,25.008,0,0,0,333,487.02v-8.5A22.04,22.04,0,0,0,345.507,466h15.654C411.8,466,453,417.9,453,358.788V271.153A60.182,60.182,0,0,0,392.927,211ZM308.02,496H97.98A8.991,8.991,0,0,1,89,487.02V472a8.056,8.056,0,0,0-8.066-8A5.941,5.941,0,0,1,75,458.066V192H331V458.066A5.955,5.955,0,0,1,325,464H108.54a8,8,0,1,0,0,16H317v7.02A8.991,8.991,0,0,1,308.02,496ZM437,358.788C437,409.08,402.979,450,361.161,450H347V434.969c.739.011,1.511.018,2.312.018,6.75,0,15.52-.474,23.15-2.414,11.561-2.939,21.673-9.459,30.055-19.378,12.247-14.492,18.992-34,18.992-54.938V315.133a8,8,0,0,0-16,0v43.124c0,17.16-5.4,33-15.213,44.61-6.186,7.321-13.513,12.1-21.776,14.2-6.958,1.769-15.542,2.008-21.52,1.9V258.008h42.608a15.938,15.938,0,0,1,15.9,15.938v9.187a8,8,0,1,0,16,0v-9.187a31.956,31.956,0,0,0-31.9-31.938H347V227h45.927A44.163,44.163,0,0,1,437,271.153Z" fill="#000000" data-original="#000000" class=""></path><path d="M104.843,125.174H158.8A13.243,13.243,0,0,1,172.029,138.4v9.1a8,8,0,0,0,16,0v-9.1A29.262,29.262,0,0,0,158.8,109.174H104.843a13.229,13.229,0,0,1,.016-26.457h62.594a20.6,20.6,0,0,0,20.576-20.576V44.163a4.581,4.581,0,0,1,4.576-4.576h37.037a22.457,22.457,0,0,0,22.432-22.432V8a8,8,0,0,0-16,0v9.155a6.439,6.439,0,0,1-6.432,6.432H192.605a20.6,20.6,0,0,0-20.576,20.576V62.141a4.581,4.581,0,0,1-4.576,4.576H104.859a29.229,29.229,0,0,0-.016,58.457Z" fill="#000000" data-original="#000000" class=""></path><path d="M214.1,110.167V147.5a8,8,0,0,0,16,0V110.167a6.566,6.566,0,0,1,6.558-6.558h25.89A22.584,22.584,0,0,0,285.108,81.05V65.689a6.567,6.567,0,0,1,6.559-6.559H359.39a8,8,0,0,0,0-16H291.667a22.585,22.585,0,0,0-22.559,22.559V81.05a6.566,6.566,0,0,1-6.558,6.559H236.66A22.584,22.584,0,0,0,214.1,110.167Z" fill="#000000" data-original="#000000" class=""></path></g></svg>