<svg xmlns="http://www.w3.org/2000/svg" id="_x33_0" height="512" viewBox="0 0 64 64" width="512"><g><g><path d="m25 1h-10.639c-7.367 0-13.361 5.993-13.361 13.36 0 5.094 2.83 9.673 7.385 11.95l1.615.808v-7.118h-1c-1.657 0-3-1.343-3-3s1.343-3 3-3h1c0-2.209 1.791-4 4-4h.171l.012-.002c.413 1.164 1.512 2.002 2.817 2.002h9c.515 0 .98.2 1.335.52 2.15-.913 3.665-3.04 3.665-5.52 0-3.309-2.691-6-6-6z" fill="#f0bc5e"></path></g><g><path d="m18 21.764-.105-.211-1.789.895.105.211c.722 1.444 2.174 2.341 3.789 2.341s3.067-.897 3.789-2.342l.105-.211-1.789-.895-.105.212c-.381.762-1.147 1.236-2 1.236s-1.619-.474-2-1.236z"></path><path d="m15 15h4v2h-4z"></path><path d="m21 15h4v2h-4z"></path><path d="m35.852 56.438-4.852-4.852v-5.421c0-7.254-4.997-13.428-12-14.989v-2.201c.171.009.342.025.515.025 5.23 0 9.485-4.255 9.485-9.485v-5.515c0-1.654-1.346-3-3-3h-9c-1.103 0-2-.897-2-2s.897-2 2-2 2 .897 2 2h2c0-2.206-1.794-4-4-4s-4 1.794-4 4c0 .037.01.07.011.107-1.96.396-3.511 1.934-3.91 3.893h-.101c-2.206 0-4 1.794-4 4s1.794 4 4 4l-.001 10.246c-4.747 1.534-7.999 5.949-7.999 10.999v3.755c0 9.374 7.626 17 17 17h33v-2h-13.323zm-9.391-3.391-2.047-2.047 1.586-1.586 7.586 7.586-1.586 1.586-1.047-1.046c-.222-2.385-2.108-4.271-4.492-4.493zm-3.34-6.047c.3 0 .581.116.793.328l.672.672-1.586 1.586-.672-.672c-.208-.209-.328-.498-.328-.793 0-.618.503-1.121 1.121-1.121zm10.659 12.634.855-.855.57 1.425zm-3.2.36.858.859.369.147h-1.832c.236-.312.446-.643.605-1.006zm-23.58-42.994c0-1.103.897-2 2-2h2v-1c0-1.51 1.125-2.751 2.579-2.958.7 1.167 1.964 1.958 3.421 1.958h9c.551 0 1 .448 1 1v5.515c0 4.128-3.358 7.485-7.485 7.485-2 0-3.879-.778-5.293-2.192l-.515-.515-1.414 1.414.515.515c1.181 1.182 2.623 2.005 4.192 2.434v2.93l-.293.293c-1.446 1.445-3.968 1.445-5.414 0l-.293-.293v-12.586h-2c-1.103 0-2-.897-2-2zm11 44c-8.271 0-15-6.729-15-15v-3.755c0-4.209 2.735-7.879 6.712-9.119l.167.167c1.1 1.101 2.564 1.707 4.121 1.707s3.021-.606 4.121-1.707l.203-.203c6.213 1.271 10.676 6.685 10.676 13.075v3.421l-3.672-3.672c-.102-.102-.216-.184-.328-.27v-4.644h-2v4.012c-1.664.065-3 1.43-3 3.109 0 .822.333 1.626.914 2.207l3.045 3.045c-.771.288-1.48.735-2.08 1.334l-.293.293h-3.586c-4.962 0-9-4.037-9-9v-5h-2v5c0 6.065 4.935 11 11 11h4.414l.879-.879c.723-.723 1.685-1.121 2.707-1.121 1.654 0 3 1.346 3 3s-1.346 3-3 3z"></path><path d="m60 5h-24c-1.654 0-3 1.346-3 3v34c0 1.654 1.346 3 3 3h9v1.586c0 1.331 1.083 2.414 2.414 2.414.635 0 1.257-.258 1.707-.707l3.293-3.293h7.586c1.654 0 3-1.346 3-3v-34c0-1.654-1.346-3-3-3zm1 37c0 .552-.449 1-1 1h-8.414l-3.878 3.878c-.241.241-.708.045-.708-.292v-3.586h-11c-.551 0-1-.448-1-1v-34c0-.552.449-1 1-1h24c.551 0 1 .448 1 1z"></path><path d="m45.707 11.707-1.414-1.414-3.293 3.293-1.293-1.293-1.414 1.414 2.707 2.707z"></path><path d="m47 13h10v2h-10z"></path><path d="m45.707 19.707-1.414-1.414-3.293 3.293-1.293-1.293-1.414 1.414 2.707 2.707z"></path><path d="m47 21h10v2h-10z"></path><path d="m45.707 27.707-1.414-1.414-3.293 3.293-1.293-1.293-1.414 1.414 2.707 2.707z"></path><path d="m47 29h10v2h-10z"></path><path d="m40 35c-1.654 0-3 1.346-3 3s1.346 3 3 3 3-1.346 3-3-1.346-3-3-3zm0 4c-.551 0-1-.448-1-1s.449-1 1-1 1 .448 1 1-.449 1-1 1z"></path><path d="m48 35c-1.654 0-3 1.346-3 3s1.346 3 3 3 3-1.346 3-3-1.346-3-3-3zm0 4c-.551 0-1-.448-1-1s.449-1 1-1 1 .448 1 1-.449 1-1 1z"></path><path d="m56 35c-1.654 0-3 1.346-3 3s1.346 3 3 3 3-1.346 3-3-1.346-3-3-3zm0 4c-.551 0-1-.448-1-1s.449-1 1-1 1 .448 1 1-.449 1-1 1z"></path></g></g></svg>